<?xml version="1.0" encoding="utf-8"?>
<!-- Generator: Adobe Illustrator 22.0.1, SVG Export Plug-In . SVG Version: 6.00 Build 0)  -->
<svg version="1.1" id="Layer_1" xmlns="http://www.w3.org/2000/svg" xmlns:xlink="http://www.w3.org/1999/xlink" x="0px" y="0px"
	 viewBox="0 0 122 120" style="enable-background:new 0 0 122 120;" xml:space="preserve">
<style type="text/css">
	.st0{fill:#F9F9F9;}
	.st1{enable-background:new    ;}
	.st2{fill:#E50019;}
</style>
<g>
	<path id="Rectangle_332" class="st0" d="M5,0h112c2.8,0,5,2.2,5,5v110c0,2.8-2.2,5-5,5H5c-2.8,0-5-2.2-5-5V5C0,2.2,2.2,0,5,0z"/>
	<g class="st1">
		<path d="M43.1,77.7c-0.2,0.4-0.5,0.7-0.8,1c-0.4,0.3-0.8,0.5-1.2,0.6c-0.5,0.1-1,0.2-1.5,0.2h-2.4V83H36v-9.8h3.7
			c0.6,0,1.1,0.1,1.5,0.2c0.5,0.1,0.8,0.3,1.2,0.6c0.3,0.3,0.6,0.6,0.7,1c0.2,0.4,0.3,0.8,0.3,1.3C43.4,76.9,43.3,77.3,43.1,77.7z
			 M41.5,74.8c-0.5-0.4-1.1-0.5-1.9-0.5h-2.5v4.3h2.4c0.4,0,0.8-0.1,1.1-0.2s0.6-0.2,0.9-0.4s0.4-0.4,0.5-0.7s0.2-0.6,0.2-0.9
			C42.3,75.7,42,75.1,41.5,74.8z"/>
		<path d="M46.5,76.8c-0.3,0.1-0.7,0.2-1,0.4l-0.3-0.9c0.4-0.2,0.8-0.3,1.2-0.4s0.9-0.2,1.4-0.2c1,0,1.8,0.2,2.3,0.7
			c0.5,0.5,0.8,1.2,0.8,2.2V83h-1v-1.1c-0.3,0.3-0.6,0.6-1,0.9s-1,0.4-1.6,0.4c-0.3,0-0.7,0-1-0.1c-0.3-0.1-0.6-0.2-0.9-0.4
			s-0.5-0.4-0.6-0.7c-0.2-0.3-0.2-0.6-0.2-1s0.1-0.7,0.2-1s0.4-0.5,0.6-0.7c0.3-0.2,0.6-0.3,1-0.4c0.4-0.1,0.8-0.2,1.3-0.2
			c0.5,0,0.9,0,1.2,0.1c0.3,0.1,0.7,0.1,1,0.2v-0.3c0-0.7-0.2-1.1-0.6-1.5s-0.9-0.5-1.6-0.5C47.3,76.6,46.9,76.7,46.5,76.8z
			 M46.2,79.7c-0.4,0.3-0.5,0.6-0.5,1.1c0,0.2,0,0.4,0.1,0.6c0.1,0.2,0.2,0.3,0.4,0.5s0.4,0.2,0.6,0.3s0.4,0.1,0.7,0.1
			c0.3,0,0.6,0,0.9-0.1c0.3-0.1,0.5-0.2,0.8-0.4c0.2-0.2,0.4-0.4,0.5-0.6s0.2-0.5,0.2-0.8v-0.7c-0.3-0.1-0.6-0.1-0.9-0.2
			c-0.3-0.1-0.7-0.1-1.2-0.1C47.1,79.3,46.5,79.5,46.2,79.7z"/>
		<path d="M54.3,83h-1.1v-7.2h1.1v1.9c0.1-0.3,0.3-0.6,0.5-0.8c0.2-0.3,0.4-0.5,0.7-0.7c0.3-0.2,0.5-0.3,0.8-0.4
			c0.3-0.1,0.6-0.1,1-0.1v1.2h-0.1c-0.4,0-0.8,0.1-1.1,0.2c-0.3,0.1-0.7,0.4-0.9,0.6c-0.3,0.3-0.5,0.6-0.6,1
			c-0.1,0.4-0.2,0.9-0.2,1.4V83z"/>
		<path d="M65.3,83H64l-2.6-3.4l-1.5,1.5V83h-1.1V72.8h1.1v7.1l3.9-4.1h1.3l-3,3.1L65.3,83z"/>
		<path d="M66.8,74.2V73h1.2v1.2H66.8z M66.9,83v-7.2H68V83H66.9z"/>
		<path d="M71.6,83h-1.1v-7.2h1.1V77c0.2-0.4,0.6-0.7,1-1c0.4-0.3,0.9-0.4,1.5-0.4c0.4,0,0.8,0.1,1.2,0.2c0.3,0.1,0.6,0.3,0.9,0.6
			s0.4,0.6,0.5,0.9s0.2,0.7,0.2,1.2V83h-1.1v-4.2c0-0.7-0.2-1.2-0.5-1.6c-0.3-0.4-0.8-0.6-1.5-0.6c-0.3,0-0.6,0.1-0.9,0.2
			c-0.3,0.1-0.5,0.3-0.7,0.5c-0.2,0.2-0.3,0.4-0.5,0.7c-0.1,0.3-0.2,0.6-0.2,0.9V83z"/>
		<path d="M85.7,83.3c-0.2,0.4-0.4,0.8-0.7,1.1s-0.7,0.5-1.2,0.7c-0.5,0.1-1,0.2-1.5,0.2c-0.6,0-1.2-0.1-1.7-0.3s-1.1-0.4-1.6-0.8
			l0.5-0.8c0.4,0.3,0.9,0.5,1.3,0.7c0.5,0.2,0.9,0.2,1.5,0.2c0.8,0,1.4-0.2,1.9-0.7c0.5-0.4,0.7-1.1,0.7-1.9v-0.9
			c-0.3,0.4-0.7,0.8-1.2,1.1c-0.5,0.3-1,0.4-1.7,0.4c-0.4,0-0.9-0.1-1.3-0.2s-0.8-0.4-1.1-0.7s-0.6-0.7-0.8-1.1
			c-0.2-0.4-0.3-0.9-0.3-1.4s0.1-1,0.3-1.4c0.2-0.4,0.4-0.8,0.8-1.1s0.7-0.5,1.1-0.7c0.4-0.2,0.8-0.2,1.3-0.2c0.3,0,0.6,0,0.9,0.1
			c0.3,0.1,0.5,0.2,0.8,0.3s0.4,0.3,0.6,0.5c0.2,0.2,0.4,0.4,0.5,0.6v-1.3H86v6C86,82.3,85.9,82.8,85.7,83.3z M84.7,78
			c-0.1-0.3-0.3-0.6-0.6-0.8c-0.2-0.2-0.5-0.4-0.8-0.5c-0.3-0.1-0.6-0.2-1-0.2c-0.3,0-0.7,0.1-1,0.2c-0.3,0.1-0.6,0.3-0.8,0.5
			S80.1,77.7,80,78s-0.2,0.6-0.2,1c0,0.4,0.1,0.7,0.2,1c0.1,0.3,0.3,0.6,0.5,0.8c0.2,0.2,0.5,0.4,0.8,0.5c0.3,0.1,0.6,0.2,1,0.2
			c0.3,0,0.7-0.1,1-0.2c0.3-0.1,0.6-0.3,0.8-0.5c0.2-0.2,0.4-0.5,0.6-0.8s0.2-0.6,0.2-1C85,78.7,84.9,78.3,84.7,78z"/>
	</g>
	<g class="st1">
		<path d="M43,93.6V98h-1.1v-9.8H43v4.4h5.7v-4.4h1.1V98h-1.1v-4.4H43z"/>
		<path d="M59.2,95.8c-0.2,0.5-0.5,0.9-0.8,1.2c-0.3,0.3-0.7,0.6-1.2,0.8c-0.5,0.2-1,0.3-1.5,0.3c-0.5,0-1-0.1-1.5-0.3
			c-0.5-0.2-0.9-0.5-1.2-0.8c-0.3-0.3-0.6-0.7-0.8-1.2c-0.2-0.5-0.3-0.9-0.3-1.5c0-0.5,0.1-1,0.3-1.5c0.2-0.5,0.4-0.9,0.8-1.2
			c0.3-0.3,0.7-0.6,1.2-0.8c0.5-0.2,1-0.3,1.5-0.3c0.5,0,1,0.1,1.5,0.3c0.5,0.2,0.9,0.5,1.2,0.8c0.3,0.3,0.6,0.7,0.8,1.2
			s0.3,0.9,0.3,1.5S59.4,95.4,59.2,95.8z M58.2,93.3c-0.1-0.3-0.3-0.6-0.6-0.9s-0.5-0.5-0.9-0.6c-0.3-0.1-0.7-0.2-1.1-0.2
			c-0.4,0-0.8,0.1-1.1,0.2c-0.3,0.1-0.6,0.3-0.8,0.6c-0.2,0.3-0.4,0.6-0.5,0.9C53.1,93.6,53,94,53,94.4s0.1,0.8,0.2,1.1
			c0.1,0.3,0.3,0.6,0.6,0.9s0.5,0.5,0.8,0.6c0.3,0.1,0.7,0.2,1.1,0.2c0.4,0,0.8-0.1,1.1-0.2c0.3-0.1,0.6-0.3,0.8-0.6
			c0.2-0.3,0.4-0.5,0.5-0.9s0.2-0.7,0.2-1.1C58.4,94,58.3,93.6,58.2,93.3z"/>
		<path d="M66.5,90.8h1.1V98h-1.1v-1.3c-0.2,0.4-0.6,0.7-1,1c-0.4,0.3-0.9,0.4-1.5,0.4c-0.4,0-0.8-0.1-1.2-0.2
			c-0.3-0.1-0.6-0.3-0.9-0.6c-0.2-0.3-0.4-0.6-0.5-0.9c-0.1-0.4-0.2-0.7-0.2-1.2v-4.5h1.1V95c0,0.7,0.2,1.2,0.5,1.6
			c0.3,0.4,0.8,0.6,1.5,0.6c0.3,0,0.6-0.1,0.9-0.2c0.3-0.1,0.5-0.3,0.7-0.5c0.2-0.2,0.3-0.4,0.5-0.7s0.2-0.6,0.2-0.9V90.8z"/>
		<path d="M71.1,98H70v-7.2h1.1v1.9c0.1-0.3,0.3-0.6,0.5-0.8c0.2-0.3,0.4-0.5,0.7-0.7c0.3-0.2,0.5-0.3,0.8-0.4
			c0.3-0.1,0.6-0.1,1-0.1v1.2H74c-0.4,0-0.8,0.1-1.1,0.2c-0.3,0.1-0.7,0.4-0.9,0.6c-0.3,0.3-0.5,0.6-0.6,1c-0.1,0.4-0.2,0.9-0.2,1.4
			V98z"/>
		<path d="M80.5,96.9c-0.1,0.3-0.3,0.5-0.5,0.7s-0.5,0.3-0.8,0.4c-0.3,0.1-0.7,0.1-1,0.1c-0.5,0-1-0.1-1.6-0.3
			c-0.5-0.2-1-0.5-1.4-0.8l0.5-0.8c0.4,0.3,0.8,0.5,1.2,0.7c0.4,0.2,0.9,0.2,1.3,0.2c0.4,0,0.8-0.1,1.1-0.3c0.3-0.2,0.4-0.5,0.4-0.8
			v0c0-0.2,0-0.3-0.1-0.5s-0.2-0.2-0.4-0.3s-0.4-0.2-0.6-0.3c-0.2-0.1-0.4-0.1-0.7-0.2c-0.3-0.1-0.6-0.2-0.8-0.3
			c-0.3-0.1-0.5-0.2-0.8-0.4c-0.2-0.1-0.4-0.3-0.6-0.6c-0.1-0.2-0.2-0.5-0.2-0.8v0c0-0.3,0.1-0.6,0.2-0.8s0.3-0.5,0.5-0.7
			c0.2-0.2,0.5-0.3,0.8-0.4c0.3-0.1,0.6-0.1,1-0.1c0.4,0,0.9,0.1,1.4,0.2c0.5,0.1,0.9,0.3,1.2,0.6L80,92.2c-0.3-0.2-0.7-0.4-1.1-0.5
			c-0.4-0.1-0.7-0.2-1.1-0.2c-0.4,0-0.8,0.1-1,0.3c-0.3,0.2-0.4,0.5-0.4,0.7v0c0,0.2,0.1,0.3,0.2,0.4s0.2,0.2,0.4,0.3
			c0.2,0.1,0.4,0.2,0.6,0.3c0.2,0.1,0.5,0.1,0.7,0.2c0.3,0.1,0.6,0.2,0.8,0.3s0.5,0.2,0.7,0.4c0.2,0.2,0.4,0.3,0.5,0.6
			c0.1,0.2,0.2,0.5,0.2,0.8v0C80.7,96.3,80.6,96.6,80.5,96.9z"/>
	</g>
	<g>
		<path class="st2" d="M61,20c-10.5,0-19,8.3-19,18.5S50.5,57,61,57s19-8.3,19-18.5S71.5,20,61,20z M61,54c-8.8,0-16-7-16-15.5
			S52.2,23,61,23s16,7,16,15.5S69.8,54,61,54z"/>
		<path class="st2" d="M73.3,37.6H62.5V26.9c0-0.8-0.7-1.5-1.5-1.5c-0.8,0-1.5,0.7-1.5,1.5v12.3c0,0.8,0.7,1.5,1.5,1.5c0,0,0,0,0,0
			s0,0,0,0h12.3c0.8,0,1.5-0.7,1.5-1.5S74.1,37.6,73.3,37.6z"/>
	</g>
</g>
</svg>
