<svg xmlns="http://www.w3.org/2000/svg" width="99" height="99" viewBox="0 0 99 99">
  <g id="Group_1292" data-name="Group 1292" transform="translate(-560 -2216)">
    <g id="Group_1290" data-name="Group 1290">
      <circle id="Ellipse_16" data-name="Ellipse 16" cx="49.5" cy="49.5" r="49.5" transform="translate(560 2216)" fill="#f9f9f9"/>
    </g>
    <path id="Path_2175" data-name="Path 2175" d="M52.62,30.816a24.023,24.023,0,0,1-1.842,7.632C48.594,43.7,45.011,47.921,41.6,52.386c-.876,1.146-10.625,12.585-11.086,12.147A132.016,132.016,0,0,1,20.161,53.4C15.186,47.444,8.7,39.745,8.082,31.647,7.127,19.118,18.325,8.375,30.517,8.375a23.545,23.545,0,0,1,17.92,9.008A19.04,19.04,0,0,1,52.62,30.816Z" transform="translate(578.975 2228.625)" fill="none" stroke="#e50019" stroke-miterlimit="10" stroke-width="4"/>
    <circle id="Ellipse_11" data-name="Ellipse 11" cx="9.794" cy="9.794" r="9.794" transform="translate(599.53 2249.552)" fill="none" stroke="#e50019" stroke-miterlimit="10" stroke-width="4"/>
  </g>
</svg>
