<svg xmlns="http://www.w3.org/2000/svg" width="99" height="99" viewBox="0 0 99 99">
  <g id="Group_1293" data-name="Group 1293" transform="translate(-1012 -2216)">
    <circle id="Ellipse_18" data-name="Ellipse 18" cx="49.5" cy="49.5" r="49.5" transform="translate(1012 2216)" fill="#f9f9f9"/>
    <g id="Group_1157" data-name="Group 1157" transform="translate(1025 2239)">
      <path id="Path_2177" data-name="Path 2177" d="M63.663,29.9,57.636,10.058H13.219L7.192,29.9V49.74H63.663Z" transform="translate(0.875 -10.058)" fill="none" stroke="#e50019" stroke-miterlimit="10" stroke-width="4"/>
      <line id="Line_48" data-name="Line 48" x2="56.471" transform="translate(8.067 19.841)" fill="none" stroke="#e50019" stroke-miterlimit="10" stroke-width="4"/>
      <path id="Rectangle_276" data-name="Rectangle 276" d="M0,0H10.005a0,0,0,0,1,0,0V10.549a2,2,0,0,1-2,2H2a2,2,0,0,1-2-2V0A0,0,0,0,1,0,0Z" transform="translate(15.019 39.682)" fill="none" stroke="#e50019" stroke-miterlimit="10" stroke-width="4"/>
      <path id="Rectangle_277" data-name="Rectangle 277" d="M0,0H10.005a0,0,0,0,1,0,0V10.549a2,2,0,0,1-2,2H2a2,2,0,0,1-2-2V0A0,0,0,0,1,0,0Z" transform="translate(46.392 39.682)" fill="none" stroke="#e50019" stroke-miterlimit="10" stroke-width="4"/>
      <line id="Line_49" data-name="Line 49" x2="8.818" transform="translate(16.207 29.338)" fill="none" stroke="#e50019" stroke-linecap="round" stroke-miterlimit="10" stroke-width="4"/>
      <line id="Line_50" data-name="Line 50" x2="8.818" transform="translate(45.544 29.762)" fill="none" stroke="#e50019" stroke-linecap="round" stroke-miterlimit="10" stroke-width="4"/>
      <rect id="Rectangle_278" data-name="Rectangle 278" width="9.949" height="6.834" rx="2" transform="translate(62.655 14.89)" fill="#e50019"/>
      <rect id="Rectangle_279" data-name="Rectangle 279" width="9.949" height="6.834" rx="2" transform="translate(0 14.89)" fill="#e50019"/>
    </g>
  </g>
</svg>
