<svg xmlns="http://www.w3.org/2000/svg" width="71.936" height="48.559" viewBox="0 0 71.936 48.559">
  <g id="Group_1137" data-name="Group 1137" transform="translate(-1013.855 -1080.037)">
    <g id="Group_1133" data-name="Group 1133" transform="matrix(-0.485, -0.875, 0.875, -0.485, 1034.451, 1128.509)">
      <g id="Group_1118" data-name="Group 1118" transform="translate(0)">
        <g id="Group_1117" data-name="Group 1117" transform="translate(0 0)">
          <path id="Path_2157" data-name="Path 2157" d="M.708,0A.708.708,0,0,0,0,.708V6.372a.708.708,0,0,0,.708.708,2.832,2.832,0,0,1,0,5.664A.708.708,0,0,0,0,13.452v5.664a.708.708,0,0,0,.708.708H41.773a.708.708,0,0,0,.708-.708V13.452a.708.708,0,0,0-.708-.708,2.832,2.832,0,1,1,0-5.664.708.708,0,0,0,.708-.708V.708A.708.708,0,0,0,41.773,0ZM37.58,10.616A4.248,4.248,0,0,0,41.065,14.1v4.307H35.4V15.576H33.985v2.832H8.5V17.7H7.08v.708H1.416V14.1a4.248,4.248,0,0,0,0-8.379V1.416H7.08V3.54H8.5V1.416H41.065V5.723A4.248,4.248,0,0,0,37.58,10.616Z"/>
        </g>
      </g>
      <g id="Group_1120" data-name="Group 1120" transform="translate(34.235 3.105)">
        <g id="Group_1119" data-name="Group 1119" transform="translate(0 0)">
          <rect id="Rectangle_264" data-name="Rectangle 264" width="0.796" height="2.388" transform="translate(0 0)"/>
        </g>
      </g>
      <g id="Group_1122" data-name="Group 1122" transform="translate(34.235 7.086)">
        <g id="Group_1121" data-name="Group 1121" transform="translate(0 0)">
          <rect id="Rectangle_265" data-name="Rectangle 265" width="0.796" height="3.185"/>
        </g>
      </g>
      <g id="Group_1124" data-name="Group 1124" transform="translate(34.235 11.067)">
        <g id="Group_1123" data-name="Group 1123" transform="translate(0 0)">
          <rect id="Rectangle_266" data-name="Rectangle 266" width="0.796" height="3.185" transform="translate(0 0)"/>
        </g>
      </g>
      <g id="Group_1126" data-name="Group 1126" transform="translate(7.165 4.698)">
        <g id="Group_1125" data-name="Group 1125" transform="translate(0 0)">
          <rect id="Rectangle_267" data-name="Rectangle 267" width="1.592" height="3.185"/>
        </g>
      </g>
      <g id="Group_1128" data-name="Group 1128" transform="translate(7.165 9.474)">
        <g id="Group_1127" data-name="Group 1127" transform="translate(0 0)">
          <rect id="Rectangle_268" data-name="Rectangle 268" width="1.592" height="2.388"/>
        </g>
      </g>
      <g id="Group_1130" data-name="Group 1130" transform="translate(7.165 13.455)">
        <g id="Group_1129" data-name="Group 1129" transform="translate(0 0)">
          <rect id="Rectangle_269" data-name="Rectangle 269" width="1.592" height="3.185" transform="translate(0)"/>
        </g>
      </g>
      <g id="Group_1132" data-name="Group 1132" transform="translate(10.62 2.832)">
        <g id="Group_1131" data-name="Group 1131" transform="translate(0 0)">
          <path id="Path_2158" data-name="Path 2158" d="M20.532,2.124A1.416,1.416,0,0,1,19.116.708.708.708,0,0,0,18.408,0H2.832a.708.708,0,0,0-.708.708A1.416,1.416,0,0,1,.708,2.124.708.708,0,0,0,0,2.832v8.5a.708.708,0,0,0,.708.708,1.416,1.416,0,0,1,1.416,1.416.708.708,0,0,0,.708.708H18.408a.708.708,0,0,0,.708-.708,1.416,1.416,0,0,1,1.416-1.416.708.708,0,0,0,.708-.708v-8.5A.708.708,0,0,0,20.532,2.124Zm-.708,8.585a2.843,2.843,0,0,0-2.035,2.035H3.451a2.843,2.843,0,0,0-2.035-2.035V3.451A2.843,2.843,0,0,0,3.451,1.416H17.79a2.843,2.843,0,0,0,2.035,2.035Z" fill="#e50019"/>
        </g>
      </g>
    </g>
    <g id="Group_1136" data-name="Group 1136" transform="translate(1085.791 1085.841) rotate(107)">
      <g id="Group_1135" data-name="Group 1135" transform="translate(0)">
        <g id="Group_1134" data-name="Group 1134" transform="translate(0 0)">
          <path id="Path_2159" data-name="Path 2159" d="M0,.9C0,.92,0,18.911,0,18.911a.941.941,0,0,0,.941.941H43.768a.941.941,0,0,0,.941-.941V.951A.941.941,0,0,0,43.768.01h-42c-.041,0-.081,0-.121,0C1.37-.012,0-.056,0,.9Zm42.824.988V17.97H1.881V1.892H7.092v10.48a.941.941,0,1,0,1.881,0V1.892H42.827Z"/>
          <path id="Path_2160" data-name="Path 2160" d="M.941,0A.941.941,0,0,0,0,.941v.368a.941.941,0,0,0,1.881,0V.941A.941.941,0,0,0,.941,0Z" transform="translate(7.092 14.562)"/>
          <path id="Path_2161" data-name="Path 2161" d="M0,.941a.941.941,0,0,0,.941.941H26.729a.941.941,0,1,0,0-1.881H.941A.941.941,0,0,0,0,.941Z" transform="translate(12.526 4.431)" fill="#e50019"/>
          <path id="Path_2162" data-name="Path 2162" d="M5.822,0H.941a.941.941,0,0,0,0,1.881H5.822A.941.941,0,0,0,5.822,0Z" transform="translate(33.433 8.023)" fill="#e50019"/>
          <path id="Path_2163" data-name="Path 2163" d="M2.485,0H.941a.941.941,0,0,0,0,1.881H2.485A.941.941,0,0,0,2.485,0Z" transform="translate(36.769 14.286)"/>
          <path id="Path_2164" data-name="Path 2164" d="M2.485,0H.941a.941.941,0,0,0,0,1.881H2.485A.941.941,0,0,0,2.485,0Z" transform="translate(31.775 14.286)"/>
          <path id="Path_2165" data-name="Path 2165" d="M9.967,0H.941a.941.941,0,0,0,0,1.881H9.967A.941.941,0,0,0,9.967,0Z" transform="translate(12.526 8.023)" fill="#e50019"/>
        </g>
      </g>
    </g>
  </g>
</svg>
