<svg xmlns="http://www.w3.org/2000/svg" width="50.322" height="44.451" viewBox="0 0 50.322 44.451">
  <g id="tickets_1_" data-name="tickets (1)" transform="translate(0 -28.001)">
    <g id="Group_1059" data-name="Group 1059" transform="translate(0 28.001)">
      <g id="Group_1058" data-name="Group 1058" transform="translate(0 0)">
        <path id="Path_2132" data-name="Path 2132" d="M49.483,57.355a.839.839,0,0,0,.839-.839v-6.71a.839.839,0,0,0-.839-.839H38.927L44.2,43.69a.839.839,0,0,0,0-1.186l-4.583-4.583a.839.839,0,0,0-1.186,0,3.355,3.355,0,1,1-4.745-4.745.839.839,0,0,0,0-1.186l-3.744-3.744a.839.839,0,0,0-1.186,0L8.04,48.968H.839A.839.839,0,0,0,0,49.807v6.71a.839.839,0,0,0,.839.839,3.355,3.355,0,0,1,0,6.71A.839.839,0,0,0,0,64.9v6.71a.839.839,0,0,0,.839.839H49.483a.839.839,0,0,0,.839-.839V64.9a.839.839,0,0,0-.839-.839,3.355,3.355,0,0,1,0-6.71ZM29.354,30.025l2.607,2.607a5.032,5.032,0,0,0,7.02,7.02L42.426,43.1l-5.871,5.871h-2.66l1.923-1.923a.839.839,0,0,0,0-1.186l-9.226-9.226a.839.839,0,0,0-1.186,0L13.072,48.968h-2.66Zm2.169,18.943H15.444L26,38.412l8.04,8.04ZM44.516,61.544a5.032,5.032,0,0,0,4.128,4.128v5.1h-6.71V67.419H40.257v3.355H10.064v-.839H8.387v.839H1.677v-5.1a5.032,5.032,0,0,0,0-9.925v-5.1h6.71v2.516h1.677V50.645h38.58v5.1A5.032,5.032,0,0,0,44.516,61.544Z" transform="translate(0 -28.001)"/>
      </g>
    </g>
    <g id="Group_1061" data-name="Group 1061" transform="translate(40.257 52.323)">
      <g id="Group_1060" data-name="Group 1060">
        <rect id="Rectangle_249" data-name="Rectangle 249" width="2" height="3" transform="translate(-0.096 -0.096)"/>
      </g>
    </g>
    <g id="Group_1063" data-name="Group 1063" transform="translate(40.257 57.355)">
      <g id="Group_1062" data-name="Group 1062">
        <rect id="Rectangle_250" data-name="Rectangle 250" width="2" height="3" transform="translate(-0.096 -0.128)"/>
      </g>
    </g>
    <g id="Group_1065" data-name="Group 1065" transform="translate(40.257 62.387)">
      <g id="Group_1064" data-name="Group 1064">
        <rect id="Rectangle_251" data-name="Rectangle 251" width="2" height="4" transform="translate(-0.096 -0.16)"/>
      </g>
    </g>
    <g id="Group_1067" data-name="Group 1067" transform="translate(8.387 54.839)">
      <g id="Group_1066" data-name="Group 1066" transform="translate(0 0)">
        <rect id="Rectangle_252" data-name="Rectangle 252" width="2" height="3" transform="translate(-0.226 0.388)"/>
      </g>
    </g>
    <g id="Group_1069" data-name="Group 1069" transform="translate(8.387 59.871)">
      <g id="Group_1068" data-name="Group 1068" transform="translate(0 0)">
        <rect id="Rectangle_253" data-name="Rectangle 253" width="2" height="3" transform="translate(-0.226 0.356)"/>
      </g>
    </g>
    <g id="Group_1071" data-name="Group 1071" transform="translate(8.387 64.903)">
      <g id="Group_1070" data-name="Group 1070">
        <rect id="Rectangle_254" data-name="Rectangle 254" width="2" height="3" transform="translate(-0.226 0.324)"/>
      </g>
    </g>
    <g id="Group_1073" data-name="Group 1073" transform="translate(12.58 52.323)">
      <g id="Group_1072" data-name="Group 1072">
        <path id="Path_2133" data-name="Path 2133" d="M144.322,262.515a1.677,1.677,0,0,1-1.677-1.677.839.839,0,0,0-.839-.839H123.355a.839.839,0,0,0-.839.839,1.677,1.677,0,0,1-1.677,1.677.839.839,0,0,0-.839.839v10.064a.839.839,0,0,0,.839.839,1.677,1.677,0,0,1,1.677,1.677.839.839,0,0,0,.839.839h18.451a.839.839,0,0,0,.839-.839,1.677,1.677,0,0,1,1.677-1.677.839.839,0,0,0,.839-.839V263.354A.839.839,0,0,0,144.322,262.515Zm-.839,10.17a3.368,3.368,0,0,0-2.41,2.41H124.088a3.368,3.368,0,0,0-2.41-2.41v-8.6a3.368,3.368,0,0,0,2.41-2.41h16.985a3.368,3.368,0,0,0,2.41,2.41Z" transform="translate(-120 -259.999)" fill="#e50019"/>
      </g>
    </g>
  </g>
</svg>
