<svg xmlns="http://www.w3.org/2000/svg" width="46.831" height="46.831" viewBox="0 0 46.831 46.831">
  <g id="hotel" transform="translate(0)">
    <g id="Group_1075" data-name="Group 1075" transform="translate(8.828 13.33)">
      <g id="Group_1074" data-name="Group 1074">
        <path id="Path_2134" data-name="Path 2134" d="M101.823,145.733h-4.39a.915.915,0,0,0-.915.915v5.122a.915.915,0,0,0,.915.915h4.39a.915.915,0,0,0,.915-.915v-5.122A.915.915,0,0,0,101.823,145.733Zm-.915,5.122H98.347v-3.293h2.561Z" transform="translate(-96.518 -145.733)"/>
      </g>
    </g>
    <g id="Group_1077" data-name="Group 1077" transform="translate(8.828 23.574)">
      <g id="Group_1076" data-name="Group 1076">
        <path id="Path_2135" data-name="Path 2135" d="M101.823,257.733h-4.39a.915.915,0,0,0-.915.915v5.122a.915.915,0,0,0,.915.915h4.39a.915.915,0,0,0,.915-.915v-5.122A.915.915,0,0,0,101.823,257.733Zm-.915,5.122H98.347v-3.293h2.561Z" transform="translate(-96.518 -257.733)" fill="#e50019"/>
      </g>
    </g>
    <g id="Group_1079" data-name="Group 1079" transform="translate(8.828 33.818)">
      <g id="Group_1078" data-name="Group 1078">
        <path id="Path_2136" data-name="Path 2136" d="M101.823,369.733h-4.39a.915.915,0,0,0-.915.915v5.122a.915.915,0,0,0,.915.915h4.39a.915.915,0,0,0,.915-.915v-5.122A.915.915,0,0,0,101.823,369.733Zm-.915,5.122H98.347v-3.293h2.561Z" transform="translate(-96.518 -369.733)"/>
      </g>
    </g>
    <g id="Group_1081" data-name="Group 1081" transform="translate(32.699 33.818)">
      <g id="Group_1080" data-name="Group 1080">
        <path id="Path_2137" data-name="Path 2137" d="M362.8,369.733h-4.39a.915.915,0,0,0-.915.915v5.122a.915.915,0,0,0,.915.915h4.39a.915.915,0,0,0,.915-.915v-5.122A.915.915,0,0,0,362.8,369.733Zm-.915,5.122h-2.561v-3.293h2.561Z" transform="translate(-357.497 -369.733)"/>
      </g>
    </g>
    <g id="Group_1083" data-name="Group 1083" transform="translate(16.785 13.33)">
      <g id="Group_1082" data-name="Group 1082">
        <path id="Path_2138" data-name="Path 2138" d="M188.816,145.733h-4.39a.915.915,0,0,0-.915.915v5.122a.915.915,0,0,0,.915.915h4.39a.915.915,0,0,0,.915-.915v-5.122A.915.915,0,0,0,188.816,145.733Zm-.915,5.122H185.34v-3.293H187.9Z" transform="translate(-183.511 -145.733)"/>
      </g>
    </g>
    <g id="Group_1085" data-name="Group 1085" transform="translate(24.742 13.33)">
      <g id="Group_1084" data-name="Group 1084">
        <path id="Path_2139" data-name="Path 2139" d="M275.808,145.733h-4.39a.915.915,0,0,0-.915.915v5.122a.915.915,0,0,0,.915.915h4.39a.915.915,0,0,0,.915-.915v-5.122A.915.915,0,0,0,275.808,145.733Zm-.915,5.122h-2.561v-3.293h2.561Z" transform="translate(-270.503 -145.733)"/>
      </g>
    </g>
    <g id="Group_1087" data-name="Group 1087" transform="translate(16.785 23.574)">
      <g id="Group_1086" data-name="Group 1086">
        <path id="Path_2140" data-name="Path 2140" d="M188.816,257.733h-4.39a.915.915,0,0,0-.915.915v5.122a.915.915,0,0,0,.915.915h4.39a.915.915,0,0,0,.915-.915v-5.122A.915.915,0,0,0,188.816,257.733Zm-.915,5.122H185.34v-3.293H187.9Z" transform="translate(-183.511 -257.733)" fill="#e50019"/>
      </g>
    </g>
    <g id="Group_1089" data-name="Group 1089" transform="translate(24.742 23.574)">
      <g id="Group_1088" data-name="Group 1088">
        <path id="Path_2141" data-name="Path 2141" d="M275.808,257.733h-4.39a.915.915,0,0,0-.915.915v5.122a.915.915,0,0,0,.915.915h4.39a.915.915,0,0,0,.915-.915v-5.122A.915.915,0,0,0,275.808,257.733Zm-.915,5.122h-2.561v-3.293h2.561Z" transform="translate(-270.503 -257.733)" fill="#e50019"/>
      </g>
    </g>
    <g id="Group_1091" data-name="Group 1091" transform="translate(32.699 13.33)">
      <g id="Group_1090" data-name="Group 1090">
        <path id="Path_2142" data-name="Path 2142" d="M362.8,145.733h-4.39a.915.915,0,0,0-.915.915v5.122a.915.915,0,0,0,.915.915h4.39a.915.915,0,0,0,.915-.915v-5.122A.915.915,0,0,0,362.8,145.733Zm-.915,5.122h-2.561v-3.293h2.561Z" transform="translate(-357.497 -145.733)"/>
      </g>
    </g>
    <g id="Group_1093" data-name="Group 1093" transform="translate(32.699 23.574)">
      <g id="Group_1092" data-name="Group 1092">
        <path id="Path_2143" data-name="Path 2143" d="M362.8,257.733h-4.39a.915.915,0,0,0-.915.915v5.122a.915.915,0,0,0,.915.915h4.39a.915.915,0,0,0,.915-.915v-5.122A.915.915,0,0,0,362.8,257.733Zm-.915,5.122h-2.561v-3.293h2.561Z" transform="translate(-357.497 -257.733)" fill="#e50019"/>
      </g>
    </g>
    <g id="Group_1095" data-name="Group 1095">
      <g id="Group_1094" data-name="Group 1094">
        <path id="Path_2144" data-name="Path 2144" d="M45.916,45H42.485V9.518a.915.915,0,0,0-.915-.915H36.494v-3.3a.915.915,0,0,0-.915-.915H30.55V.915A.915.915,0,0,0,29.635,0H17.2a.915.915,0,0,0-.915.915V4.39H11.252a.915.915,0,0,0-.915.915V8.6H5.26a.915.915,0,0,0-.915.915V45H.915a.915.915,0,0,0,0,1.829h45a.915.915,0,1,0,0-1.829ZM18.11,1.829h10.61V4.39H18.11ZM27.257,45H20.928l6.329-6.329Zm0-8.91c-.02.017-.041.035-.06.054l-7.623,7.623V39.892l5.867-5.867h1.816Zm-7.683,1.214v-3.28h3.28ZM40.656,45H29.086V34.026h.32a.915.915,0,0,0,0-1.829H17.424a.915.915,0,0,0,0,1.829h.32V45H6.175V10.433H16.328a.915.915,0,0,0,0-1.829H12.166V6.22h22.5V8.6H23.555a.915.915,0,0,0,0,1.829h17.1V45Z"/>
      </g>
    </g>
    <g id="Group_1097" data-name="Group 1097" transform="translate(18.98 8.603)">
      <g id="Group_1096" data-name="Group 1096">
        <path id="Path_2145" data-name="Path 2145" d="M209.071,94.328a.914.914,0,1,0,.268.647A.922.922,0,0,0,209.071,94.328Z" transform="translate(-207.51 -94.06)"/>
      </g>
    </g>
  </g>
</svg>
