<svg xmlns="http://www.w3.org/2000/svg" width="75.362" height="42.52" viewBox="0 0 75.362 42.52">
  <g id="Group_1116" data-name="Group 1116" transform="translate(-1240.638 -1096.881)">
    <path id="Subtraction_3" data-name="Subtraction 3" d="M-5382.678,410.451h-48.645a.839.839,0,0,1-.838-.838V402.9a.839.839,0,0,1,.838-.838,3.358,3.358,0,0,0,3.354-3.355,3.358,3.358,0,0,0-3.354-3.354.84.84,0,0,1-.838-.839v-6.709a.843.843,0,0,1,.605-.806h49.11a.843.843,0,0,1,.606.806v6.709a.84.84,0,0,1-.839.839,3.359,3.359,0,0,0-3.355,3.354,3.359,3.359,0,0,0,3.355,3.355.839.839,0,0,1,.839.838v6.711A.839.839,0,0,1-5382.678,410.451Zm-9.227-5.032h1.678v3.355h6.709v-5.1a5.035,5.035,0,0,1-4.127-4.129,5.038,5.038,0,0,1,4.127-5.8v-5.1H-5422.1v2.516h-1.678v-2.516h-6.709v5.1a5.032,5.032,0,0,1,4.128,4.128,5.039,5.039,0,0,1-4.128,5.8v5.1h6.709v-.839h1.678v.839h30.191v-3.354Zm-5.87,1.677h-18.451a.839.839,0,0,1-.839-.838,1.68,1.68,0,0,0-1.677-1.678.839.839,0,0,1-.839-.838V393.677a.84.84,0,0,1,.839-.839,1.679,1.679,0,0,0,1.677-1.677.84.84,0,0,1,.839-.839h18.451a.84.84,0,0,1,.839.839,1.679,1.679,0,0,0,1.677,1.677.84.84,0,0,1,.839.839v10.065a.839.839,0,0,1-.839.838,1.68,1.68,0,0,0-1.677,1.678A.839.839,0,0,1-5397.774,407.1Zm-17.718-15.1a3.372,3.372,0,0,1-2.41,2.41v8.6a3.369,3.369,0,0,1,2.41,2.41h16.985a3.368,3.368,0,0,1,2.411-2.41v-8.6a3.373,3.373,0,0,1-2.411-2.41h-16.985ZM-5422,406.226h-2v-3h2v3Zm32-2h-2v-4h2v4Zm-32-3h-2v-3h2v3Zm32-3h-2v-3h2v3Zm-32-2h-2v-3h2v3Zm32-3h-2v-3h2v3Z" transform="translate(6337.311 3041.87) rotate(25)"/>
    <g id="Group_1115" data-name="Group 1115">
      <circle id="Ellipse_10" data-name="Ellipse 10" cx="17" cy="17" r="17" transform="translate(1282 1105)" fill="#fff"/>
      <g id="diamond" transform="translate(1286.715 1111.502)">
        <path id="Path_2148" data-name="Path 2148" d="M11.785,22.5a.355.355,0,0,1-.273-.127L.084,8.8a.357.357,0,0,1-.013-.444L4.357,2.643A.357.357,0,0,1,4.642,2.5H18.927a.357.357,0,0,1,.286.143L23.5,8.357a.357.357,0,0,1-.013.444L12.058,22.371A.355.355,0,0,1,11.785,22.5ZM.814,8.558,11.785,21.587,22.756,8.558,18.748,3.214H4.821Z" transform="translate(0 0)" fill="#e50019" stroke="#e50019" stroke-width="0.5"/>
        <path id="Path_2149" data-name="Path 2149" d="M23.212,11.214H.357a.357.357,0,0,1,0-.714H23.212a.357.357,0,0,1,0,.714Z" transform="translate(0 -2.286)" fill="#e50019" stroke="#e50019" stroke-width="0.5"/>
        <path id="Path_2150" data-name="Path 2150" d="M16.357,24.784a.346.346,0,0,1-.107-.016.356.356,0,0,1-.233-.448L20.3,10.75a.357.357,0,0,1,.681.215L16.7,24.535A.357.357,0,0,1,16.357,24.784Z" transform="translate(-4.572 -2.286)" fill="#e50019" stroke="#e50019" stroke-width="0.5"/>
        <path id="Path_2151" data-name="Path 2151" d="M14.642,24.784a.357.357,0,0,1-.341-.25l-4.285-13.57a.357.357,0,1,1,.681-.215l4.285,13.57a.357.357,0,0,1-.233.448A.326.326,0,0,1,14.642,24.784Z" transform="translate(-2.858 -2.286)" fill="#e50019" stroke="#e50019" stroke-width="0.5"/>
        <path id="Path_2152" data-name="Path 2152" d="M9.214,8.928a.357.357,0,0,1-.32-.2L6.037,3.017A.357.357,0,1,1,6.676,2.7L9.533,8.412a.356.356,0,0,1-.319.516Z" transform="translate(-1.714 0)" fill="#e50019" stroke="#e50019" stroke-width="0.5"/>
        <path id="Path_2153" data-name="Path 2153" d="M10.357,8.928a.357.357,0,0,1-.285-.571l4.285-5.714a.357.357,0,0,1,.571.429L10.644,8.785A.358.358,0,0,1,10.357,8.928Z" transform="translate(-2.858 0)" fill="#e50019" stroke="#e50019" stroke-width="0.5"/>
        <path id="Path_2154" data-name="Path 2154" d="M20.642,8.928a.356.356,0,0,1-.286-.143L16.071,3.071a.357.357,0,0,1,.571-.429l4.285,5.714a.357.357,0,0,1-.071.5A.353.353,0,0,1,20.642,8.928Z" transform="translate(-4.572 0)" fill="#e50019" stroke="#e50019" stroke-width="0.5"/>
        <path id="Path_2155" data-name="Path 2155" d="M22.357,8.928a.358.358,0,0,1-.319-.517L24.895,2.7a.357.357,0,1,1,.639.319L22.677,8.73A.358.358,0,0,1,22.357,8.928Z" transform="translate(-6.287 0)" fill="#e50019" stroke="#e50019" stroke-width="0.5"/>
      </g>
    </g>
  </g>
</svg>
