<svg xmlns="http://www.w3.org/2000/svg" width="36.624" height="36.735" viewBox="0 0 36.624 36.735">
  <g id="Group_1142" data-name="Group 1142" transform="translate(-1466 -1091.955)">
    <g id="suitcase" transform="translate(1465.223 1091.955)">
      <path id="Path_2156" data-name="Path 2156" d="M31.751,6.03H27.574A1.075,1.075,0,0,0,26.5,5.023h-.055V2.715A2.732,2.732,0,0,0,23.7,0H14.475a2.732,2.732,0,0,0-2.743,2.715V5.023h-.055A1.075,1.075,0,0,0,10.6,6.03H6.427a5.656,5.656,0,0,0-5.65,5.65V32.12a4.62,4.62,0,0,0,4.615,4.615H32.786A4.62,4.62,0,0,0,37.4,32.12V11.68A5.657,5.657,0,0,0,31.751,6.03ZM19.759,8.182c3.908-.028-.013-.012,3.891,0h3.886v26.4H10.642V8.182ZM13.885,2.715a.564.564,0,0,1,.59-.562H23.7a.564.564,0,0,1,.59.562V5.023h-.056A1.075,1.075,0,0,0,23.165,6.03H15.013A1.075,1.075,0,0,0,13.94,5.023h-.056ZM2.929,32.12V11.68a3.5,3.5,0,0,1,3.5-3.5H8.489v26.4h-3.1A2.465,2.465,0,0,1,2.929,32.12Zm32.319,0a2.465,2.465,0,0,1-2.463,2.463h-3.1V8.182h2.062a3.5,3.5,0,0,1,3.5,3.5V32.12Z"/>
    </g>
    <path id="Path_2167" data-name="Path 2167" d="M6920.557,743.3c.491-.357,3.437-4.552,2.008-6.917" transform="translate(-5437 363)" fill="none" stroke="#000" stroke-width="1"/>
    <path id="Path_2166" data-name="Path 2166" d="M6848.363,732.246l-2.406,2.46v4.667h4.722v-4.667Z" transform="matrix(0.985, 0.174, -0.174, 0.985, -5133.187, -804.391)" fill="none" stroke="#e50019" stroke-width="1"/>
  </g>
</svg>
