<svg xmlns="http://www.w3.org/2000/svg" width="34.534" height="27.844" viewBox="0 0 34.534 27.844">
  <g id="Group_1157" data-name="Group 1157" transform="translate(-5.854 -8.558)">
    <path id="Path_2177" data-name="Path 2177" d="M34.053,19.5l-2.867-9.438H10.059L7.192,19.5v9.438H34.053Z" transform="translate(2.498 0)" fill="none" stroke="#fff" stroke-miterlimit="10" stroke-width="3"/>
    <line id="Line_48" data-name="Line 48" x2="26.861" transform="translate(9.69 19.495)" fill="none" stroke="#fff" stroke-miterlimit="10" stroke-width="3"/>
    <path id="Rectangle_276" data-name="Rectangle 276" d="M0,0H4.759a0,0,0,0,1,0,0V3.969a2,2,0,0,1-2,2H2a2,2,0,0,1-2-2V0A0,0,0,0,1,0,0Z" transform="translate(12.998 28.933)" fill="none" stroke="#fff" stroke-miterlimit="10" stroke-width="3"/>
    <path id="Rectangle_277" data-name="Rectangle 277" d="M0,0H4.759a0,0,0,0,1,0,0V3.969a2,2,0,0,1-2,2H2a2,2,0,0,1-2-2V0A0,0,0,0,1,0,0Z" transform="translate(27.92 28.933)" fill="none" stroke="#fff" stroke-miterlimit="10" stroke-width="3"/>
    <line id="Line_49" data-name="Line 49" x2="4.194" transform="translate(13.562 24.013)" fill="none" stroke="#fff" stroke-linecap="round" stroke-miterlimit="10" stroke-width="3"/>
    <line id="Line_50" data-name="Line 50" x2="4.194" transform="translate(27.517 24.214)" fill="none" stroke="#fff" stroke-linecap="round" stroke-miterlimit="10" stroke-width="3"/>
    <rect id="Rectangle_278" data-name="Rectangle 278" width="4.732" height="3.251" rx="1.625" transform="translate(35.656 17.141)" fill="#fff"/>
    <rect id="Rectangle_279" data-name="Rectangle 279" width="4.732" height="3.251" rx="1.625" transform="translate(5.853 17.141)" fill="#fff"/>
  </g>
</svg>
