<svg xmlns="http://www.w3.org/2000/svg" width="33.668" height="40.428" viewBox="0 0 33.668 40.428">
  <g id="Group_1274" data-name="Group 1274" transform="translate(1.506 1.5)">
    <path id="Path_2175" data-name="Path 2175" d="M38.652,23.346a15.65,15.65,0,0,1-1.265,5.092c-1.5,3.5-3.961,6.32-6.3,9.3-.6.764-7.3,8.4-7.613,8.1a89.138,89.138,0,0,1-7.112-7.426C12.943,34.44,8.488,29.3,8.064,23.9,7.408,15.542,15.1,8.375,23.472,8.375a16.336,16.336,0,0,1,12.307,6.009A12.457,12.457,0,0,1,38.652,23.346Z" transform="translate(-8.025 -8.375)" fill="none" stroke="#e50019" stroke-miterlimit="10" stroke-width="3"/>
    <ellipse id="Ellipse_11" data-name="Ellipse 11" cx="7.023" cy="7.023" rx="7.023" ry="7.023" transform="translate(8.308 8.038)" fill="none" stroke="#e50019" stroke-miterlimit="10" stroke-width="3"/>
  </g>
</svg>
